<svg width="24" height="25" viewBox="0 0 24 25" fill="none" xmlns="http://www.w3.org/2000/svg">
<g id="Icon / Youtube">
<path id="Vector" d="M21.5928 7.70301C21.4789 7.28041 21.2563 6.89501 20.9472 6.58518C20.6381 6.27534 20.2532 6.05187 19.8308 5.93701C18.2648 5.50701 11.9998 5.50001 11.9998 5.50001C11.9998 5.50001 5.73584 5.49301 4.16884 5.90401C3.74677 6.02415 3.36266 6.25078 3.05341 6.56214C2.74415 6.8735 2.52013 7.25913 2.40284 7.68201C1.98984 9.24801 1.98584 12.496 1.98584 12.496C1.98584 12.496 1.98184 15.76 2.39184 17.31C2.62184 18.167 3.29684 18.844 4.15484 19.075C5.73684 19.505 11.9848 19.512 11.9848 19.512C11.9848 19.512 18.2498 19.519 19.8158 19.109C20.2383 18.9943 20.6236 18.7714 20.9335 18.4622C21.2434 18.153 21.4672 17.7682 21.5828 17.346C21.9968 15.781 21.9998 12.534 21.9998 12.534C21.9998 12.534 22.0198 9.26901 21.5928 7.70301ZM9.99584 15.505L10.0008 9.50501L15.2078 12.51L9.99584 15.505Z" fill="white"/>
</g>
</svg>
